<?xml version="1.0" encoding="UTF-8"?>
<svg id="Layer_1" data-name="Layer 1" xmlns="http://www.w3.org/2000/svg" viewBox="0 0 504 143.35">
  <defs>
    <style>
      .cls-1 {
        fill: #fff;
      }

      .cls-2 {
        fill: none;
      }

      .cls-3 {
        fill: #3c4b61;
      }

      .cls-4 {
        fill: #cbd4e0;
      }
    </style>
  </defs>
  <path class="cls-2" d="M157.49,108.79l5.78-12.53h-3.78c-10.4,0-20.77-.72-31.04-2.12v16.21l29.04-1.56Z"/>
  <path class="cls-2" d="M391.21,108.27c3.02,2.26,6.6,3.39,10.73,3.39,3.59,0,6.52-.4,8.8-1.2,2.28-.8,3.9-1.75,4.88-2.85v-24.46c-.9.09-1.8.15-2.7.25h0c-11.12,1.18-22.24,2.27-33.37,3.28.95,4.7,2.33,8.87,4.19,12.47,1.96,3.82,4.45,6.86,7.47,9.12Z"/>
  <path class="cls-2" d="M267.33,103.83l1.33-9.71c-1.04.04-2.07.09-3.11.13l1.78,9.58Z"/>
  <path class="cls-2" d="M212.15,11.46l-1.21,33.37-.35,3.84c3.72.07,7.45.14,11.17.23l-1.59-5.47-8.02-31.97Z"/>
  <path class="cls-2" d="M303.5,11.09l-5.87,30.01-2.51,10.62c4.3.23,8.61.48,12.91.73l-.8-7.53-3.73-33.83Z"/>
  <path class="cls-3" d="M82.4,61.61h0c-1.89.67-3.15,2.46-3.15,4.46v12.76c0,1.8,1.13,3.41,2.83,4.02l.26.09c7.34,2.61,14.8,4.84,22.35,6.69v-34.69c-7.53,1.85-14.97,4.07-22.29,6.68Z"/>
  <path class="cls-4" d="M65.34,62.36l-25.41-6-33.47,13.95c-.64-.99-1.75-1.64-3.02-1.64-1.59,0-2.94,1.03-3.42,2.46-.09.28.1.57.39.57h45.1c.28-1.71,1.75-3.03,3.55-3.03,2.21,0,3.96,2,3.54,4.29-.27,1.48-1.51,2.67-3,2.88-2.04.3-3.79-1.1-4.09-2.99H.41c-.29,0-.48.29-.39.57.48,1.43,1.83,2.46,3.42,2.46,1.27,0,2.38-.65,3.02-1.64l33.47,13.95,25.41-6c.91-.22,1.56-1.03,1.56-1.97v-15.91c0-.94-.64-1.75-1.56-1.97Z"/>
  <path class="cls-1" d="M169.66,96.26h-6.38l-5.78,12.53-29.04,1.56v-34.12l14.78.26,1.95,11h12.5v-32.94h-12.5l-1.95,11.07-14.78.26V31.38l23.5,1.56,5.01,12.96h12.63l-1.43-23.76h-73.96v9.57l10.48,2.15v75.72l-10.55,1.76v9.9h80.47l3.3-24.99c-2.75,0-5.51.03-8.26.03Z"/>
  <path class="cls-1" d="M182.98,125.27l-16.03,2.52v14.07h55.64v-14.07l-19.01-2.52,2.68-29.32c-6.48.1-12.96.18-19.44.23l-3.84,29.08Z"/>
  <path class="cls-3" d="M308.03,52.46c-4.3-.26-8.61-.5-12.91-.73-5.72-.31-11.44-.61-17.16-.87-7.74-.36-15.48-.68-23.23-.97l9.43,36.89,1.39,7.48c1.04-.04,2.07-.09,3.11-.13,5.54-.24,11.09-.5,16.63-.77,8.98-.45,17.96-.95,26.94-1.51l-4.2-39.38Z"/>
  <path class="cls-1" d="M350.19,125.27l-5.48-35.67-5.38-35.04-5.83-37.96,20.23-2.89V0h-64.03l-11.74,50.85c5.72.27,11.44.56,17.16.87l2.51-10.62,5.87-30.01,3.73,33.83.8,7.53,4.2,39.38,3.57,33.43-15.19,2.52v14.07h65.24v-14.07l-15.66-2.52Z"/>
  <path class="cls-1" d="M268.66,94.12l-1.33,9.71-1.78-9.58-1.39-7.48-9.43-36.89L241.98,0h-62.91v13.7l18.27,2.98-4.2,31.75c5.82.06,11.64.14,17.45.24l.35-3.84,1.21-33.37,8.02,31.97,1.59,5.47,13.51,46.41,13.98,48.04h24.23l11.81-50.01c-5.54.28-11.09.54-16.63.77Z"/>
  <path class="cls-3" d="M221.76,48.9c-3.72-.08-7.45-.16-11.17-.23-5.82-.1-11.64-.18-17.45-.24-7.83-.08-15.65-.13-23.48-.13h-10.22c-10.38,0-20.73.72-30.98,2.11v15.47l14.78-.26,1.95-11.07h12.5v32.94h-12.5l-1.95-11-14.78-.26v17.91c10.27,1.4,20.64,2.12,31.04,2.12h10.16c2.75,0,5.51-.02,8.26-.03,2.97-.01,5.94-.02,8.91-.04,6.48-.05,12.96-.13,19.44-.23,9.67-.15,19.34-.37,29.01-.64l-13.51-46.41Z"/>
  <path class="cls-1" d="M379.75,52.74c1.2-4.83,2.91-8.82,5.13-11.97,2.22-3.14,4.9-5.49,8.04-7.03,3.14-1.54,6.66-2.31,10.54-2.31,2.15,0,3.96.12,5.41.35,1.46.23,2.68.53,3.67.89.99.36,1.79.75,2.41,1.17.61.42,1.13.84,1.55,1.27l3.8,16.72h15.96l1.58-25.64c-1.14-.25-2.87-.61-5.19-1.08-2.32-.46-5-.92-8.04-1.36s-6.31-.82-9.81-1.14c-3.5-.32-7.03-.47-10.57-.47-7.6,0-14.58,1.15-20.96,3.45-6.37,2.3-11.87,5.62-16.49,9.97-4.62,4.35-8.23,9.67-10.83,15.96-.56,1.36-1.05,2.77-1.49,4.21,8.11.65,16.21,1.35,24.31,2.09.27-1.78.59-3.47.98-5.06Z"/>
  <path class="cls-1" d="M404.79,69.11v11.33l10.83,1.39v25.77c-.97,1.1-2.6,2.05-4.88,2.85-2.28.8-5.21,1.2-8.8,1.2-4.14,0-7.71-1.13-10.73-3.39s-5.51-5.3-7.47-9.12c-1.85-3.6-3.24-7.78-4.19-12.47-8.48.77-16.97,1.51-25.46,2.19.33,1.2.69,2.39,1.09,3.54,2.09,5.91,5.16,11,9.21,15.26s9.04,7.59,14.97,9.97c5.93,2.38,12.74,3.58,20.42,3.58,4.43,0,8.63-.33,12.6-.98s7.61-1.39,10.92-2.22c3.31-.82,6.28-1.58,8.9-2.28,2.62-.7,4.81-1.09,6.58-1.17v-32.99l6.27-1.14v-11.33h-40.27Z"/>
  <path class="cls-3" d="M494.45,62.73h-51.79c-9.94,0-19.86-.52-29.74-1.57h0c-11.38-1.21-22.76-2.32-34.15-3.35-8.1-.74-16.21-1.43-24.31-2.09-5.04-.4-10.07-.79-15.11-1.16l5.38,35.04c3.12-.24,6.25-.47,9.37-.72,8.49-.68,16.98-1.41,25.46-2.19,11.13-1.02,22.25-2.1,33.37-3.28h0c.9-.1,1.8-.16,2.7-.25v-1.31l-10.83-1.39v-11.33h40.27v11.33l-6.27,1.14v.3c1.29-.02,2.58-.05,3.87-.05h51.79c5.28,0,9.55-4.28,9.55-9.55s-4.28-9.55-9.55-9.55Z"/>
</svg>